<?xml version="1.0" standalone="no"?>
<!DOCTYPE svg PUBLIC "-//W3C//DTD SVG 20010904//EN"
 "http://www.w3.org/TR/2001/REC-SVG-20010904/DTD/svg10.dtd">
<svg version="1.0" xmlns="http://www.w3.org/2000/svg"
 width="64.000000pt" height="64.000000pt" viewBox="0 0 64.000000 64.000000"
 preserveAspectRatio="xMidYMid meet">

<g transform="translate(0.000000,64.000000) scale(0.100000,-0.100000)"
fill="#000000" stroke="none">
<path d="M130 522 c-135 -68 -168 -472 -38 -472 24 0 78 46 78 67 0 21 -14 15
-45 -17 -16 -16 -32 -30 -37 -30 -17 0 -47 65 -53 115 -13 101 31 253 87 300
38 32 54 31 123 -5 31 -16 65 -30 75 -30 9 0 42 14 73 30 31 17 66 30 78 30
64 0 134 -151 132 -285 0 -78 -23 -145 -49 -145 -9 0 -38 20 -66 45 -27 24
-66 49 -86 55 -65 18 -171 8 -179 -16 -3 -8 18 -10 65 -6 88 6 128 -8 191 -64
62 -56 95 -57 126 -4 27 48 29 220 2 297 -26 74 -69 129 -112 143 -34 11 -42
10 -96 -19 -33 -17 -68 -31 -79 -31 -11 0 -46 14 -77 30 -65 35 -67 35 -113
12z"/>
<path d="M145 398 c-31 -16 -45 -39 -45 -71 0 -40 14 -62 50 -77 54 -22 110
15 110 74 0 38 -10 55 -41 71 -33 18 -47 18 -74 3z m82 -44 c15 -24 15 -29 2
-53 -11 -20 -22 -26 -49 -26 -27 0 -38 6 -49 26 -13 24 -13 29 2 53 12 18 26
26 47 26 21 0 35 -8 47 -26z"/>
<path d="M450 371 c0 -26 -4 -30 -32 -33 -18 -2 -33 -7 -33 -13 0 -5 15 -11
33 -13 28 -3 32 -7 32 -33 0 -16 5 -29 10 -29 6 0 10 13 10 29 0 26 4 30 33
33 17 2 32 8 32 13 0 6 -15 11 -32 13 -29 3 -33 7 -33 33 0 16 -4 29 -10 29
-5 0 -10 -13 -10 -29z"/>
</g>
</svg>
